<svg width="24" height="25" viewBox="0 0 24 25" fill="none" xmlns="http://www.w3.org/2000/svg">
<path d="M15 22.5V18.5C15.1392 17.2473 14.78 15.9901 14 15C17 15 20 13 20 9.5C20.08 8.25 19.73 7.02 19 6C19.28 4.85 19.28 3.65 19 2.5C19 2.5 18 2.5 16 4C13.36 3.5 10.64 3.5 8.00004 4C6.00004 2.5 5.00004 2.5 5.00004 2.5C4.70004 3.65 4.70004 4.85 5.00004 6C4.27191 7.01588 3.91851 8.25279 4.00004 9.5C4.00004 13 7.00004 15 10 15C9.61004 15.49 9.32004 16.05 9.15004 16.65C8.98004 17.25 8.93004 17.88 9.00004 18.5V22.5" stroke="white" stroke-width="2" stroke-linecap="round" stroke-linejoin="round"/>
<path d="M9.00006 18.5C4.49006 20.5 4.00006 16.5 2.00006 16.5" stroke="white" stroke-width="2" stroke-linecap="round" stroke-linejoin="round"/>
</svg>
