<svg width="24" height="25" viewBox="0 0 24 25" fill="none" xmlns="http://www.w3.org/2000/svg">
<path d="M16.0001 8.5C17.5914 8.5 19.1175 9.13214 20.2427 10.2574C21.3679 11.3826 22.0001 12.9087 22.0001 14.5V21.5H18.0001V14.5C18.0001 13.9696 17.7893 13.4609 17.4143 13.0858C17.0392 12.7107 16.5305 12.5 16.0001 12.5C15.4696 12.5 14.9609 12.7107 14.5858 13.0858C14.2108 13.4609 14.0001 13.9696 14.0001 14.5V21.5H10.0001V14.5C10.0001 12.9087 10.6322 11.3826 11.7574 10.2574C12.8826 9.13214 14.4088 8.5 16.0001 8.5Z" stroke="white" stroke-width="2" stroke-linecap="round" stroke-linejoin="round"/>
<path d="M6.00006 9.5H2.00006V21.5H6.00006V9.5Z" stroke="white" stroke-width="2" stroke-linecap="round" stroke-linejoin="round"/>
<path d="M4.00006 6.5C5.10463 6.5 6.00006 5.60457 6.00006 4.5C6.00006 3.39543 5.10463 2.5 4.00006 2.5C2.89549 2.5 2.00006 3.39543 2.00006 4.5C2.00006 5.60457 2.89549 6.5 4.00006 6.5Z" stroke="white" stroke-width="2" stroke-linecap="round" stroke-linejoin="round"/>
</svg>
